<svg width="21" height="21" viewBox="0 0 21 21" fill="none" xmlns="http://www.w3.org/2000/svg">
<path d="M20.6 7.4523C20.5353 7.26166 20.4161 7.09414 20.2573 6.97044C20.0985 6.84673 19.9069 6.77225 19.7062 6.75619L13.8355 6.2897L11.2951 0.666173C11.2142 0.485051 11.0826 0.331214 10.9162 0.223229C10.7498 0.115244 10.5557 0.0577262 10.3573 0.0576173C10.1589 0.0575085 9.96477 0.114813 9.79825 0.222615C9.63173 0.330417 9.49996 0.48411 9.41886 0.665143L6.87844 6.2897L1.00776 6.75619C0.810519 6.77181 0.621951 6.84393 0.464621 6.96392C0.307291 7.08391 0.18786 7.24668 0.120617 7.43277C0.0533738 7.61886 0.0411654 7.82038 0.0854525 8.01322C0.12974 8.20606 0.228647 8.38206 0.370341 8.52017L4.70873 12.7494L3.17438 19.3934C3.12779 19.5945 3.14273 19.805 3.21724 19.9975C3.29176 20.19 3.42242 20.3557 3.59226 20.4731C3.76211 20.5904 3.9633 20.654 4.16973 20.6556C4.37617 20.6571 4.5783 20.5966 4.74992 20.4819L10.357 16.7438L15.964 20.4819C16.1394 20.5983 16.3463 20.6583 16.5568 20.6537C16.7673 20.6491 16.9713 20.5801 17.1415 20.4561C17.3116 20.332 17.4396 20.1589 17.5084 19.9599C17.5772 19.7609 17.5834 19.5456 17.5262 19.343L15.6427 12.7525L20.3137 8.549C20.6196 8.27302 20.7318 7.84258 20.6 7.4523Z" fill="#F2C94C"/>
</svg>
